:SAMPLES-PER-SECOND 30
:FULLY-SPECIFIED
:DEGREES
799
root  5.05606 39.2668 5.42321 -30.8011 -83.1337 22.5513
RightUpLeg  -1.50063 -11.5337 -9.87856
RightLeg  44.6138 -0.92728 -1.28011
RightFoot  -10.6418 -0.121386 7.88723
RightToes  -1.33073e-015 0 -3.6325e-017
Spine  9.13151 2.11753 3.17321
Spine1  8.54213 4.22551 -8.97308
HEad  -17.5386 3.10702 -7.30294
LeftShoulder1  0.254332 2.78987 -29.5966
LeftArm  -7.05635 15.1781 -35.5669
LeftForeArm  20.3945 -8.76753 -6.65002
LeftHand  -0.0196366 6.95263 0.787222
RightShoulder  -0.237286 -4.23401 25.0725
RightArm  30.907 8.70147 61.8806
RightForeArm  1.27054 28.1637 6.02131
RightHand  -0.801786 6.30985 -8.2685
LeftUpLeg  -3.68586 3.71447 -4.6172
LeftLeg  14.8854 -2.64527 -0.487543
LeftFoot  -4.04041 -0.322362 5.42739
LeftToes  -1.03319e-009 7.52634e-011 -3.26162e-012
800
root  5.7596 39.1987 5.65237 -37.531 -84.1274 29.1528
RightUpLeg  1.2539 -10.6464 -9.05152
RightLeg  45.8964 0.357035 0.0780438
RightFoot  -11.0729 -0.0942168 8.2382
RightToes  -1.33073e-015 0 -3.6325e-017
Spine  8.77174 2.43194 3.49109
Spine1  8.74927 4.64637 -9.23953
HEad  -17.9924 4.03389 -7.60603
LeftShoulder1  0.125563 3.16005 -30.3183
LeftArm  -6.71001 16.1488 -35.3284
LeftForeArm  20.3904 -9.83888 -6.50229
LeftHand  -0.0254837 4.418 -0.193028
RightShoulder  -0.224035 -4.19495 24.9256
RightArm  33.3243 9.08292 62.7798
RightForeArm  2.78906 29.8181 6.34239
RightHand  -0.788547 6.15577 -8.23887
LeftUpLeg  -4.53649 3.87966 -5.15829
LeftLeg  14.6119 -1.36505 -0.435692
LeftFoot  -2.94673 -0.409091 5.81288
LeftToes  -1.03319e-009 7.52634e-011 -3.26162e-012
801
root  6.49801 39.0904 5.87003 -43.0551 -84.8803 34.6727
RightUpLeg  4.19581 -10.0582 -7.98609
RightLeg  45.5878 2.07914 1.95702
RightFoot  -11.7999 -0.0420318 9.3403
RightToes  -1.33073e-015 0 -3.6325e-017
Spine  8.3831 2.42851 4.55102
Spine1  9.01238 4.99686 -10.4185
HEad  -18.1643 4.51609 -7.67143
LeftShoulder1  0.105992 3.20986 -29.9747
LeftArm  -5.96718 17.5712 -36.1758
LeftForeArm  18.4594 -11.6881 -6.32445
LeftHand  -0.0285994 5.27907 -0.0643759
RightShoulder  -0.242062 -4.24683 25.1742
RightArm  36.2969 9.7564 63.5308
RightForeArm  3.05076 30.3985 6.47295
RightHand  -0.766863 6.13927 -8.03171
LeftUpLeg  -5.89311 3.56984 -5.61963
LeftLeg  14.9083 -0.231316 -0.145479
LeftFoot  -2.10533 -0.471333 5.98994
LeftToes  -1.03319e-009 7.52634e-011 -3.26162e-012
802
root  7.28096 38.9706 6.10381 -56.3964 -85.5439 48.4231
RightUpLeg  6.51741 -9.21683 -7.26751
RightLeg  44.0197 4.30759 4.1456
RightFoot  -12.0375 -0.0182612 10.8204
RightToes  -1.33073e-015 0 -3.6325e-017
Spine  7.78122 2.61995 5.16957
Spine1  9.16963 5.41681 -11.1741
HEad  -17.0988 1.98806 -7.43866
LeftShoulder1  0.0503476 3.36559 -30.2664
LeftArm  -5.61592 18.17 -36.8786
LeftForeArm  17.4768 -12.9661 -6.04412
LeftHand  -0.0223076 5.03866 0.507126
RightShoulder  -0.219575 -4.17923 25.0032
RightArm  39.0956 10.2758 64.1986
RightForeArm  1.92043 29.9602 6.42574
RightHand  -0.732021 5.89437 -7.83826
LeftUpLeg  -7.57101 3.11111 -6.38874
LeftLeg  14.8074 1.41858 0.198671
LeftFoot  -1.13862 -0.517926 5.87484
LeftToes  -1.03319e-009 7.52634e-011 -3.26162e-012
803
root  8.1163 38.8532 6.32878 -74.142 -85.9937 66.7712
RightUpLeg  8.45714 -8.13564 -6.38716
RightLeg  40.793 6.2801 5.48996
RightFoot  -11.0668 -0.105765 12.9812
RightToes  -1.33073e-015 0 -3.6325e-017
Spine  7.08518 2.90743 5.64369
Spine1  9.42151 5.87565 -11.5499
HEad  -17.1431 1.14296 -6.68455
LeftShoulder1  0.0690157 3.31382 -30.1964
LeftArm  -5.17822 18.1432 -38.3127
LeftForeArm  16.3673 -13.7116 -5.95951
LeftHand  -0.0169417 4.61648 0.631832
RightShoulder  -0.246734 -4.26187 25.1253
RightArm  41.7144 10.8734 64.3519
RightForeArm  0.332435 28.8957 6.25055
RightHand  -0.734901 6.16951 -7.69418
LeftUpLeg  -9.41905 2.59177 -7.01541
LeftLeg  14.4139 3.21392 0.549531
LeftFoot  0.0196195 -0.583969 5.86008
LeftToes  -1.03319e-009 7.52634e-011 -3.26162e-012
804
root  9.01822 38.7347 6.55408 -90.6559 -85.9375 83.6885
RightUpLeg  10.7705 -7.65963 -5.74307
RightLeg  35.6099 7.19386 5.30522
RightFoot  -11.4744 -0.0670382 14.4084
RightToes  -1.33073e-015 0 -3.6325e-017
Spine  7.1935 2.82891 6.35387
Spine1  9.20257 6.07064 -12.2624
HEad  -17.2786 0.577827 -5.994
LeftShoulder1  0.0656171 3.32209 -29.9897
LeftArm  -3.92728 17.7474 -39.5359
LeftForeArm  15.8874 -14.8249 -5.91208
LeftHand  -0.0309537 5.5452 1.01167
RightShoulder  -0.294439 -4.39931 25.6456
RightArm  44.9131 11.7568 64.2612
RightForeArm  -1.63372 27.0049 5.89693
RightHand  -0.706573 6.31341 -7.32485
LeftUpLeg  -11.0483 2.15567 -7.523
LeftLeg  13.7641 4.87099 0.758765
LeftFoot  1.25406 -0.667092 5.97469
LeftToes  -1.03319e-009 7.52634e-011 -3.26162e-012
805
root  9.9627 38.6726 6.78435 -105.755 -85.649 99.315
RightUpLeg  12.7036 -7.07029 -4.95505
RightLeg  28.8881 5.4539 3.02984
RightFoot  -15.3515 0.252632 10.5818
RightToes  -1.33073e-015 0 -3.6325e-017
Spine  7.46217 2.63249 6.90703
Spine1  8.83749 6.05608 -12.2394
HEad  -17.4861 -0.132592 -5.53742
LeftShoulder1  0.078746 3.28576 -29.9698
LeftArm  -2.80739 16.8051 -40.6819
LeftForeArm  17.2622 -15.8282 -5.70483
LeftHand  -0.0236008 4.57063 0.0258524
RightShoulder  -0.180024 -4.05239 25.0393
RightArm  46.1166 12.023 64.4623
RightForeArm  -2.9924 24.8828 5.47876
RightHand  -0.646275 6.14125 -6.82723
LeftUpLeg  -12.3172 1.19264 -7.86817
LeftLeg  12.0367 6.8893 0.961741
LeftFoot  2.73275 -0.72842 5.75721
LeftToes  -1.03319e-009 7.52634e-011 -3.26162e-012
806
root  11.0244 38.5508 7.03317 -111.977 -85.5135 106.134
RightUpLeg  13.6213 -7.38139 -4.42131
RightLeg  23.0619 3.25125 1.30507
RightFoot  -19.4459 0.286671 5.7897
RightToes  -1.33073e-015 0 -3.6325e-017
Spine  8.2521 2.14122 7.68205
Spine1  8.36061 5.67215 -11.959
HEad  -18.18 -1.39615 -4.93844
LeftShoulder1  0.0900199 3.25648 -30.2713
LeftArm  0.141865 15.1916 -41.3862
LeftForeArm  17.7776 -17.4316 -5.45792
LeftHand  -0.0168272 3.72968 -0.284238
RightShoulder  -0.178328 -4.04895 24.8855
RightArm  46.7554 12.8336 64.1388
RightForeArm  -4.9365 22.1724 5.44365
RightHand  -0.671469 5.35914 -7.5549
LeftUpLeg  -13.8923 0.542781 -7.92782
LeftLeg  10.4022 7.9157 0.741924
LeftFoot  3.98373 -0.739938 5.32445
LeftToes  -1.03319e-009 7.52634e-011 -3.26162e-012
807
root  12.1596 38.4771 7.30608 -121.443 -86.1405 115.828
RightUpLeg  13.5544 -7.56593 -3.22004
RightLeg  19.1636 1.46067 0.333013
RightFoot  -21.0263 0.0302267 1.99917
RightToes  -1.33073e-015 0 -3.6325e-017
Spine  9.66646 1.47529 9.71178
Spine1  8.37544 5.36002 -12.0876
HEad  -19.9384 -2.71539 -4.42407
LeftShoulder1  0.0936274 3.24478 -29.9688
LeftArm  2.97856 13.2958 -42.6531
LeftForeArm  18.1207 -19.6783 -4.77969
LeftHand  -0.0163758 3.33149 -0.0809038
RightShoulder  -0.217027 -4.16494 25.298
RightArm  42.6408 13.9697 62.767
RightForeArm  -2.83391 19.1722 6.70193
RightHand  -0.645525 4.66337 -7.7279
LeftUpLeg  -14.98 0.0113125 -7.1993
LeftLeg  8.5507 8.70165 0.603586
LeftFoot  4.23886 -0.560861 3.9067
LeftToes  -1.03319e-009 7.52634e-011 -3.26162e-012
808
root  13.2994 38.4511 7.61182 -126.17 -87.2804 120.941
RightUpLeg  12.4195 -9.51279 -2.64315
RightLeg  17.1339 1.96767 0.58751
RightFoot  -21.3503 -0.229862 -0.997495
RightToes  -1.33073e-015 0 -3.6325e-017
Spine  10.5707 0.763451 11.536
Spine1  9.17043 4.75427 -11.354
HEad  -21.9836 -4.41249 -4.06121
LeftShoulder1  0.180516 3.0007 -29.8787
LeftArm  5.11389 11.552 -43.8972
LeftForeArm  18.041 -22.0259 -4.17686
LeftHand  -0.027117 3.52381 0.466186
RightShoulder  -0.203318 -4.11493 25.5578
RightArm  33.8887 14.9539 60.4797
RightForeArm  3.03793 15.3139 8.36986
RightHand  -0.540702 4.92292 -6.37629
LeftUpLeg  -16.0712 -0.46687 -6.37263
LeftLeg  6.64003 8.34305 0.222511
LeftFoot  2.94588 -0.43393 3.33184
LeftToes  -1.03319e-009 7.52634e-011 -3.26162e-012
809
root  14.365 38.5256 7.90188 -132.646 -88.247 128.409
RightUpLeg  10.2547 -10.4361 -1.84345
RightLeg  15.7632 1.70165 0.833609
RightFoot  -20.6767 -0.346743 -2.53523
RightToes  -1.33073e-015 0 -3.6325e-017
Spine  10.8441 0.542053 12.613
Spine1  9.48668 4.33248 -10.1233
HEad  -22.8354 -5.48304 -1.98431
LeftShoulder1  0.269277 2.74319 -29.3151
LeftArm  5.4468 10.9111 -45.267
LeftForeArm  18.6963 -24.3426 -4.18946
LeftHand  -0.0513339 2.77506 1.65116
RightShoulder  -0.25952 -4.27732 26.2073
RightArm  24.6478 15.3793 57.1559
RightForeArm  7.16374 10.7693 9.47054
RightHand  -0.529113 4.88628 -6.27791
LeftUpLeg  -16.9314 -0.569379 -5.60927
LeftLeg  3.65926 7.02658 -0.632872
LeftFoot  0.377248 -0.196546 1.82637
LeftToes  -1.03319e-009 7.52634e-011 -3.26162e-012
810
root  15.2424 38.6848 8.14954 -130.171 -88.7463 126.825
RightUpLeg  8.00459 -10.3118 -1.30122
RightLeg  15.1985 1.00182 0.978221
RightFoot  -19.298 -0.331624 -2.88235
RightToes  -1.33073e-015 0 -3.6325e-017
Spine  10.851 0.662687 11.992
Spine1  9.17061 3.65004 -7.55084
HEad  -22.314 -6.61572 0.391685
LeftShoulder1  0.170021 3.0307 -29.8262
LeftArm  5.56075 11.025 -44.9964
LeftForeArm  19.5362 -26.8776 -4.72953
LeftHand  -0.0837629 2.05264 2.59845
RightShoulder  -0.196994 -4.0776 26.5018
RightArm  16.9653 14.8672 53.946
RightForeArm  9.97685 5.64755 9.2149
RightHand  -0.467386 4.0483 -5.92285
LeftUpLeg  -16.6028 -0.569932 -5.12876
LeftLeg  -0.376442 4.57512 -1.34171
LeftFoot  -2.64352 0.186013 -2.31717
LeftToes  -1.03319e-009 7.52634e-011 -3.26162e-012
811
root  16.0001 38.8866 8.40281 -80.6356 -89.1189 77.6465
RightUpLeg  6.88358 -10.7786 -1.59976
RightLeg  14.1714 0.621033 1.44841
RightFoot  -17.5673 -0.26108 -2.60904
RightToes  -1.33073e-015 0 -3.6325e-017
Spine  10.9113 0.498061 11.6554
Spine1  9.04652 3.08659 -6.33554
HEad  -21.0041 -8.11392 3.15889
LeftShoulder1  0.211428 2.9029 -29.0411
LeftArm  5.58558 11.0834 -45.3324
LeftForeArm  19.5027 -27.999 -4.98619
LeftHand  -0.0924039 1.79669 2.72756
RightShoulder  -0.260784 -4.2582 27.1674
RightArm  12.7723 13.3204 51.059
RightForeArm  10.4302 1.79117 7.622
RightHand  -0.279702 2.054 -4.52172
LeftUpLeg  -16.0869 -0.941752 -5.16042
LeftLeg  -2.27703 1.44737 -1.20623
LeftFoot  -4.5097 0.392921 -6.00778
LeftToes  -1.03319e-009 7.52634e-011 -3.26162e-012
812
root  16.6398 39.1308 8.64914 -41.839 -88.1859 39.2072
RightUpLeg  6.3495 -10.1806 -2.10052
RightLeg  12.2643 -0.829204 1.53378
RightFoot  -15.6275 -0.185973 -2.14433
RightToes  -1.33073e-015 0 -3.6325e-017
Spine  10.8204 0.489036 10.6973
Spine1  8.79017 2.6059 -4.97371
HEad  -19.4454 -10.2628 4.71185
LeftShoulder1  0.198329 2.94164 -29.1497
LeftArm  5.88762 11.0438 -44.5983
LeftForeArm  19.1374 -28.675 -5.16111
LeftHand  -0.059395 3.21634 2.31269
RightShoulder  -0.244803 -4.21724 26.854
RightArm  8.59102 10.0371 48.9577
RightForeArm  7.43718 -0.890689 5.93232
RightHand  -0.4383 3.1487 -6.21207
LeftUpLeg  -16.3665 -1.32918 -5.43055
LeftLeg  -0.382256 -0.276653 -0.937794
LeftFoot  -4.18732 0.364743 -5.42739
LeftToes  -1.03319e-009 7.52634e-011 -3.26162e-012
813
root  17.1883 39.3227 8.90817 -40.1052 -87.0537 37.8691
RightUpLeg  5.76974 -9.73511 -2.87518
RightLeg  10.7647 -1.98087 1.43904
RightFoot  -14.1353 -0.133082 -1.53221
RightToes  -1.33073e-015 0 -3.6325e-017
Spine  10.6139 0.632426 10.3617
Spine1  8.45171 2.59921 -4.62109
HEad  -18.5448 -12.5315 6.55101
LeftShoulder1  0.196734 2.94411 -29.0157
LeftArm  6.24249 10.5106 -43.8728
LeftForeArm  19.108 -28.3722 -5.09317
LeftHand  -0.0450839 3.57654 1.75756
RightShoulder  -0.279485 -4.33291 26.4084
RightArm  5.47529 5.51183 47.1936
RightForeArm  5.09707 -1.53479 4.49832
RightHand  -0.391559 2.30795 -6.10002
LeftUpLeg  -16.788 -1.27098 -5.57811
LeftLeg  3.38829 0.113574 -0.908879
LeftFoot  -4.19603 0.362298 -5.42951
LeftToes  -1.03319e-009 7.52634e-011 -3.26162e-012
